# xmcd
#
# Track frame offsets:
#	150
#	32862
#	57168
#	78443
#	112205
#	139718
#	173186
#	197135
#	222389
#	244976
#	263089
#	308636
#
# Disc length: 4411 seconds
#
# Revision: 1
# Processed by: cddbd v1.5.2PL0 Copyright (c) Steve Scherf et al.
# Submitted via: audiograbber 1.83.01
#
DISCID=b011390c
DTITLE=Eagles - Take It Easy - Live In The USA CD04
DYEAR=1900
DGENRE=Rock
TTITLE0=Hotel California
TTITLE1=Already Gone
TTITLE2=In The City
TTITLE3=King of Hollywood
TTITLE4=The Sad Cafe
TTITLE5=Lyin' Eyes
TTITLE6=I Can't Tell You Why
TTITLE7=Those Shoes
TTITLE8=Heartache Tonight
TTITLE9=One of These Nights
TTITLE10=Turn To Stone
TTITLE11=The Long Run
EXTD=
EXTT0=
EXTT1=
EXTT2=
EXTT3=
EXTT4=
EXTT5=
EXTT6=
EXTT7=
EXTT8=
EXTT9=
EXTT10=
EXTT11=
PLAYORDER=
